<svg id="Layer_1" data-name="Layer 1" xmlns="http://www.w3.org/2000/svg" viewBox="0 0 316.16 102.36"><title>acnicksvg</title><path d="M736,105.55c-.3-27.72,22.43-50.83,50.37-51.22a51.18,51.18,0,1,1,1.09,102.35C759.15,156.89,736.27,134.16,736,105.55Zm51,42.18A42.22,42.22,0,1,0,744.9,105.1,42.09,42.09,0,0,0,787,147.73Z" transform="translate(-735.96 -54.33)"/><path d="M881.08,141.81h-9.14V124h-12.5V141.8h-9.1c-.07-1.12-.19-2.1-.19-3.08,0-17.57,0-35.14,0-52.71,0-9.38,5.33-15.72,13.81-16.73,8.71-1,16.79,5.49,17,14.31.27,14.32.12,28.64.14,43C881.09,131.51,881.08,136.48,881.08,141.81Zm-9.38-27.43c0-10.49.15-20.81-.11-31.12-.06-2.51-2.17-4.24-4.9-4.65-4.36-.64-7.23,2.07-7.28,7.11-.08,7.71,0,15.42,0,23.13v5.53Z" transform="translate(-735.96 -54.33)"/><path d="M1044.52,105.47c6.22,4.81,7.65,11.15,7.59,18.12-.06,6,0,11.95,0,18.15h-9.19c0-6.62,0-13.09,0-19.56-.05-5.61-2.8-9.74-7.58-11.3a32.53,32.53,0,0,0-5-.82v31.65h-9.06V69.22h8.9v31.2c7,1,12.4-3.66,12.67-10.9.21-5.58.06-11.17.07-16.76v-3.5h9c.06.81.19,1.68.19,2.54,0,6,.1,12,0,18C1051.94,95.93,1050,101.33,1044.52,105.47Z" transform="translate(-735.96 -54.33)"/><path d="M937.68,141.86h-9.2v-3.61q0-26.5-.11-53A15.88,15.88,0,0,1,943.7,69.12c8.1-.3,15.56,6.26,15.67,14.62.25,19.09.09,38.18.09,57.27a3.19,3.19,0,0,1-.27.76h-8.77c0-1.13-.14-2.12-.14-3.1q0-26.2,0-52.4c0-4-1.83-6.92-4.71-7.59-4.33-1-7.84,2.17-7.88,7.22-.05,6,0,12,0,18v38Z" transform="translate(-735.96 -54.33)"/><path d="M1016,69.08v9c-17,2-27.61,10.4-27.84,28.59-.1,7.49,3.14,13.74,8.63,18.77a27.47,27.47,0,0,0,19.21,7.18v9.16c-12,.24-21.82-4.2-29.18-13.41C977.65,116.86,976,103.85,982,90.58,988.39,76.36,1000.19,69.66,1016,69.08Z" transform="translate(-735.96 -54.33)"/><path d="M923.35,69.15v9.18c-9.75.27-17.76,4-23.36,12.08a25.86,25.86,0,0,0-4.53,16.1,26.17,26.17,0,0,0,8.64,18.82c5.34,5,11.87,7.12,19.23,7.29v9.2c-13,0-23.39-5.06-30.67-15.62-8.26-12-9-25-2.25-37.72C897.2,75.6,908.58,69.41,923.35,69.15Z" transform="translate(-735.96 -54.33)"/><path d="M973.58,141.79h-8.94V69.24h8.94Z" transform="translate(-735.96 -54.33)"/><path d="M786.08,73.87l18.58,53.68H767.51C773.68,109.72,779.79,92.07,786.08,73.87Z" transform="translate(-735.96 -54.33)"/></svg>