<?xml version="1.0" encoding="utf-8"?>
<!-- Generator: Adobe Illustrator 23.0.5, SVG Export Plug-In . SVG Version: 6.00 Build 0)  -->
<svg version="1.1" id="Layer_1" xmlns="http://www.w3.org/2000/svg" xmlns:xlink="http://www.w3.org/1999/xlink" x="0px" y="0px"
	 viewBox="0 0 316.2 102.4" style="enable-background:new 0 0 316.2 102.4;" xml:space="preserve">
<style type="text/css">
	.st0{fill:#094074;}
</style>
<title>acnicksvg</title>
<path class="st0" d="M0,51.2C-0.3,23.5,22.5,0.4,50.4,0c28.3-0.6,51.6,21.9,52.2,50.2c0.6,28.3-21.9,51.6-50.2,52.2
	c-0.3,0-0.6,0-0.9,0C23.2,102.6,0.3,79.8,0,51.2z M51,93.4c23.3,0.1,42.3-18.8,42.3-42.1S74.6,9,51.3,9C28.1,8.9,9.2,27.6,8.9,50.8
	C8.6,74,27.2,93.1,50.5,93.4C50.7,93.4,50.9,93.4,51,93.4L51,93.4z"/>
<path class="st0" d="M145.1,87.5H136V69.7h-12.5v17.8h-9.1c-0.1-1.1-0.2-2.1-0.2-3.1c0-17.6,0-35.1,0-52.7c0-9.4,5.3-15.7,13.8-16.7
	c8.7-1,16.8,5.5,17,14.3c0.3,14.3,0.1,28.6,0.1,43C145.1,77.2,145.1,82.1,145.1,87.5z M135.7,60c0-10.5,0.2-20.8-0.1-31.1
	c-0.1-2.5-2.2-4.2-4.9-4.7c-4.4-0.6-7.2,2.1-7.3,7.1c-0.1,7.7,0,15.4,0,23.1V60L135.7,60z"/>
<path class="st0" d="M308.6,51.1c6.2,4.8,7.7,11.2,7.6,18.1c-0.1,6,0,12,0,18.2H307c0-6.6,0-13.1,0-19.6c-0.1-5.6-2.8-9.7-7.6-11.3
	c-1.6-0.4-3.3-0.7-5-0.8v31.7h-9.1V14.9h8.9v31.2c7,1,12.4-3.7,12.7-10.9c0.2-5.6,0.1-11.2,0.1-16.8v-3.5h9c0.1,0.8,0.2,1.7,0.2,2.5
	c0,6,0.1,12,0,18C316,41.6,314,47,308.6,51.1z"/>
<path class="st0" d="M201.7,87.5h-9.2v-3.6c0-17.7,0-35.3-0.1-53c-0.1-8.7,6.7-15.8,15.3-16.1c8.1-0.3,15.6,6.3,15.7,14.6
	c0.3,19.1,0.1,38.2,0.1,57.3c-0.1,0.3-0.1,0.5-0.3,0.8h-8.8c0-1.1-0.1-2.1-0.1-3.1c0-17.5,0-34.9,0-52.4c0-4-1.8-6.9-4.7-7.6
	c-4.3-1-7.8,2.2-7.9,7.2c0,6,0,12,0,18L201.7,87.5L201.7,87.5z"/>
<path class="st0" d="M280,14.8v9c-17,2-27.6,10.4-27.8,28.6c-0.1,7.5,3.1,13.7,8.6,18.8c5.2,4.8,12.1,7.4,19.2,7.2v9.2
	c-12,0.2-21.8-4.2-29.2-13.4c-9.2-11.5-10.8-24.5-4.8-37.8C252.4,22,264.2,15.3,280,14.8z"/>
<path class="st0" d="M187.4,14.8V24c-9.8,0.3-17.8,4-23.4,12.1c-3.3,4.7-4.8,10.4-4.5,16.1c0.2,7.2,3.3,14,8.6,18.8
	c5.3,5,11.9,7.1,19.2,7.3v9.2c-13,0-23.4-5.1-30.7-15.6c-8.3-12-9-25-2.3-37.7C161.2,21.3,172.6,15.1,187.4,14.8z"/>
<path class="st0" d="M237.6,87.5h-8.9V14.9h8.9V87.5z"/>
<path class="st0" d="M50.1,19.5l18.6,53.7H31.5C37.7,55.4,43.8,37.7,50.1,19.5z"/>
</svg>
